<svg width="72" height="72" viewBox="0 0 72 72" fill="none" xmlns="http://www.w3.org/2000/svg">
<g clip-path="url(#clip0_5_69)">
<mask id="path-1-inside-1_5_69" fill="white">
<path d="M7.00001 36.1986C7 20.4574 19.7608 7.69661 35.502 7.69662C51.2433 7.69661 64.0041 20.4574 64.0041 36.1986C64.0041 51.9399 51.2433 64.7007 35.502 64.7007C19.7608 64.7007 7 51.9399 7.00001 36.1986Z"/>
</mask>
<path d="M7.00001 36.1986C7 20.4574 19.7608 7.69661 35.502 7.69662C51.2433 7.69661 64.0041 20.4574 64.0041 36.1986C64.0041 51.9399 51.2433 64.7007 35.502 64.7007C19.7608 64.7007 7 51.9399 7.00001 36.1986Z" fill="#0164FF"/>
<path d="M10 36.1986C10 22.1143 21.4177 10.6966 35.502 10.6966L35.502 4.69662C18.1039 4.69662 4 18.8005 4.00001 36.1986L10 36.1986ZM35.502 10.6966C49.5864 10.6966 61.0041 22.1143 61.0041 36.1986L67.0041 36.1986C67.0041 18.8006 52.9001 4.69662 35.502 4.69662L35.502 10.6966ZM61.0041 36.1986C61.0041 50.283 49.5864 61.7007 35.502 61.7007L35.502 67.7007C52.9001 67.7007 67.0041 53.5967 67.0041 36.1986L61.0041 36.1986ZM35.502 61.7007C21.4176 61.7007 10 50.283 10 36.1986L4.00001 36.1986C4 53.5967 18.1039 67.7007 35.502 67.7007L35.502 61.7007Z" fill="white" mask="url(#path-1-inside-1_5_69)"/>
<path d="M33.004 38L7.00404 38L7.00404 35L33.004 35L33.004 38Z" fill="white"/>
<path d="M51.8216 29.983C50.2513 27.7707 41.4162 24.6805 34.9849 26.2941C28.5537 27.9078 19.6813 33.3503 20.1923 36.932C20.7033 40.5137 32.4608 47.2964 40.1695 45.0456C47.8782 42.7949 53.3918 32.1954 51.8216 29.983Z" fill="#FFB014" stroke="#030209" stroke-width="1.37827"/>
<path d="M26.5107 37.2487C33.471 37.2999 46.2873 34.4272 49.5327 31.5278" stroke="#030209" stroke-width="1.37827" stroke-linecap="round"/>
</g>
<defs>
<clipPath id="clip0_5_69">
<rect width="72" height="72" fill="white"/>
</clipPath>
</defs>
</svg>
